<?xml version="1.0" encoding="UTF-8" standalone="no"?>
<!-- Created with Inkscape (http://www.inkscape.org/) -->
<svg id="svg3676" xmlns:rdf="http://www.w3.org/1999/02/22-rdf-syntax-ns#" xmlns="http://www.w3.org/2000/svg" height="128.04" width="229.46" version="1.1" xmlns:cc="http://creativecommons.org/ns#" xmlns:dc="http://purl.org/dc/elements/1.1/">
 <metadata id="metadata3681">
  <rdf:RDF>
   <cc:Work rdf:about="">
    <dc:format>image/svg+xml</dc:format>
    <dc:type rdf:resource="http://purl.org/dc/dcmitype/StillImage"/>
    <dc:title/>
   </cc:Work>
  </rdf:RDF>
 </metadata>
 <g id="layer1" transform="translate(-497.76796,-423.88411)">
  <g id="g4696" transform="matrix(2.8953492,0,0,2.8953492,-358.95368,-1398.2202)">
   <g id="g4678" stroke-linejoin="miter" stroke="#000" stroke-linecap="butt" stroke-miterlimit="10" stroke-dasharray="none" stroke-width="1.25" fill="none">
    <path id="path3247" d="m297.37,660.18,38.156,7.9425"/>
    <path id="path3255" d="m299.88,652.55,35.646,15.576"/>
    <path id="path3263" d="m303.95,645.59,31.576,22.529"/>
    <path id="path3271" d="m309.4,639.62,26.126,28.498"/>
    <path id="path3279" d="m323.43,631.63,12.09,36.492"/>
    <path id="path3287" d="m331.41,629.95,4.1162,38.169"/>
    <path id="path3295" d="m339.56,629.95-4.0362,38.176"/>
    <path id="path3303" d="m347.54,631.61-12.014,36.516"/>
    <path id="path3315" d="m361.59,639.57-26.068,28.55"/>
    <path id="path3323" d="m367.05,645.53-31.53,22.592"/>
    <path id="path3331" d="m371.14,652.47-35.614,15.648"/>
    <path id="path3339" d="m373.66,660.1-38.142,8.0188"/>
    <path id="path3343" d="m315.99,634.9,19.535,33.221"/>
    <path id="path3347" d="m335.52,668.12-39.001,0.0387"/>
    <path id="path3351" d="m374.52,668.08-39.001,0.0387"/>
    <path id="path3355" d="m354.99,634.86-19.466,33.26"/>
   </g>
   <path id="path3357" fill-rule="nonzero" fill="#fafafa" d="m368.38,669.01c0-18.162-14.698-32.861-32.859-32.861-18.162,0-32.859,14.699-32.859,32.861l7.785,3.7875,46.68,0.24875,11.252-4.0362z"/>
  </g>
  <g id="needle" transform="matrix(-1.2581109,-2.6077199,2.6077199,-1.2581109,-718.19766,2252.8052)">
   <path id="path3383" fill-rule="nonzero" fill="#ff213e" d="m333.43,666.79,5.1238,2.4825,8.645-24.74-13.769,22.258z"/>
   <path id="path3387" stroke-linejoin="round" d="m333.43,666.79,5.1238,2.4825,8.645-24.74-13.769,22.258z" stroke="#ff213e" stroke-linecap="round" stroke-miterlimit="4" stroke-dasharray="none" stroke-width="1.80000007" fill="none"/>
  </g>
  <g id="g3901" transform="matrix(2.8953492,0,0,2.8953492,-358.95368,-1402.3168)">
   <path id="path3389" fill-rule="nonzero" fill="#ff213e" d="m332.91,674.41c2.7,1.3162,5.9562,0.19625,7.2725-2.5038,1.3175-2.7,0.19625-5.9562-2.5038-7.2738-2.7-1.3162-5.9562-0.195-7.2725,2.505-1.3175,2.7-0.19625,5.9562,2.5038,7.2725"/>
  </g>
 </g>
</svg>
