<?xml version="1.0" encoding="UTF-8" standalone="no"?>
<!-- Created with Inkscape (http://www.inkscape.org/) -->
<svg id="svg3746" xmlns:rdf="http://www.w3.org/1999/02/22-rdf-syntax-ns#" xmlns="http://www.w3.org/2000/svg" height="230" width="230" version="1.1" xmlns:cc="http://creativecommons.org/ns#" xmlns:dc="http://purl.org/dc/elements/1.1/">
 <metadata id="metadata3751">
  <rdf:RDF>
   <cc:Work rdf:about="">
    <dc:format>image/svg+xml</dc:format>
    <dc:type rdf:resource="http://purl.org/dc/dcmitype/StillImage"/>
    <dc:title/>
   </cc:Work>
  </rdf:RDF>
 </metadata>
 <path id="path3413" opacity="0.95" fill-rule="nonzero" fill="#fafafa" d="m65.001,223.28c25.49,0,46.154-20.664,46.154-46.154,0-25.491-20.664-46.155-46.154-46.155s-46.155,20.664-46.155,46.155c0,25.49,20.665,46.154,46.155,46.154"/>
 <path id="path3445" stroke-linejoin="miter" d="m138.5,151.5-47.003,0s-0.11306-17.31,0-22.605c0.39807-18.78,4.9982-34.992,23.502-50.395,17.218,15.402,23.072,31.497,23.5,50.052,0.12493,5.3776,0,22.948,0,22.948z" stroke="#000" stroke-linecap="butt" stroke-miterlimit="10" stroke-dasharray="none" stroke-width="2.35544157" fill="none"/>
 <path id="path3449" stroke-linejoin="miter" d="m119.88,121.97-9.765,0" stroke="#000" stroke-linecap="butt" stroke-miterlimit="4" stroke-dasharray="none" stroke-width="0.625" fill="none"/>
 <path id="path3453" stroke-linejoin="miter" d="m114.99,117.09,0,9.765" stroke="#000" stroke-linecap="butt" stroke-miterlimit="4" stroke-dasharray="none" stroke-width="0.625" fill="none"/>
 <path id="path3796" opacity="0.95" d="m204.84,115a89.845,89.845,0,0,1,-179.69,0,89.845,89.845,0,1,1,179.69,0z" stroke="#000" stroke-miterlimit="4" stroke-dasharray="none" stroke-width="11.42671871" fill="none"/>
 <path id="path3473" stroke-linejoin="miter" d="m48.336,179.27-8.8388,8.8388" stroke="#000" stroke-linecap="butt" stroke-miterlimit="10" stroke-dasharray="none" stroke-width="1.25" fill="none"/>
 <text id="text3475" y="167.70467" x="-123.34112" font-size="15px" transform="matrix(0.70710678,-0.70710678,0.70710678,0.70710678,0,0)">
  <tspan id="tspan3477" font-size="18.74999619px" font-weight="600" fill-rule="nonzero" style="writing-mode:lr-tb;" font-variant="normal" y="167.70467" x="-123.34112" font-family="AvenirNext" fill="#000000">N</tspan>
 </text>
 <path id="path3481" stroke-linejoin="miter" d="M115,76.855,115,19.092" stroke-dashoffset="0" stroke="#000" stroke-linecap="butt" stroke-miterlimit="4" stroke-dasharray="4.44397875, 4.44397875" stroke-width="1.11043954" fill="none"/>
 <g id="g3005" transform="matrix(0.99671004,-0.08104995,0.08104995,0.99671004,115.10434,115.16851)">
  <path id="red" d="m-62.613-90.175,23.597,24.276-2.1235,22.166-22.151,0.7581-23.261-23.93,23.937-23.27z" fill-rule="nonzero" fill="#ff213e"/>
 </g>
</svg>
