<?xml version="1.0" encoding="UTF-8" standalone="no"?>
<!-- Created with Inkscape (http://www.inkscape.org/) -->
<svg id="svg3617" xmlns:rdf="http://www.w3.org/1999/02/22-rdf-syntax-ns#" xmlns="http://www.w3.org/2000/svg" height="230" width="230" version="1.1" xmlns:cc="http://creativecommons.org/ns#" xmlns:dc="http://purl.org/dc/elements/1.1/">
 <metadata id="metadata3622">
  <rdf:RDF>
   <cc:Work rdf:about="">
    <dc:format>image/svg+xml</dc:format>
    <dc:type rdf:resource="http://purl.org/dc/dcmitype/StillImage"/>
    <dc:title/>
   </cc:Work>
  </rdf:RDF>
 </metadata>
 <text id="text3377" font-size="11.91445637px" transform="matrix(0.70710678,-0.70710678,0.70710678,0.70710678,0,0)" y="172.37903" x="-112.84081">
  <tspan id="tspan3379" font-size="14.89306736px" font-family="AvenirNext" fill-rule="nonzero" style="writing-mode:lr-tb;" font-variant="normal" y="172.37903" x="-112.84081" font-weight="600" fill="#000000">N</tspan>
 </text>
 <g id="g3163" stroke-linejoin="miter" transform="matrix(0.84054337,0,0,0.84054337,118.54163,112.44549)" stroke="#000" stroke-linecap="butt" fill="none">
  <path id="path3365" d="m-42.526-16.16c6.3981-18.42,18.023-35.72,38.309-52.517,18.602,16.555,30.328,33.528,37.191,51.512" stroke-dasharray="none" stroke-miterlimit="10" stroke-width="0.99287134"/>
  <path id="path3369" d="m-49.556,33.825,0,37.605,90.685,0,0-37.605" stroke-dasharray="none" stroke-miterlimit="10" stroke-width="0.99287134"/>
  <path id="path3383" d="m-3.9471-69.33,0-35.121" stroke-dashoffset="0" stroke-dasharray="1.84876579, 1.84876579" stroke-miterlimit="4" stroke-width="0.47821155"/>
 </g>
 <path id="path4418" fill="none" d="m-79.127-13.936c0.01187,27.007-0.67458,53.924-1.864,73.088s-2.8668,30.337-4.5548,30.337-3.3654-11.172-4.5548-30.337c-1.1894-19.164-1.8758-46.081-1.864-73.088-0.01187-27.007,0.67458-53.924,1.864-73.088s2.8668-30.337,4.5548-30.337,3.3654,11.172,4.5548,30.337c1.1894,19.164,1.8758,46.081,1.864,73.088z"/>
 <path id="path3375" stroke-linejoin="miter" d="m55.508,181.71-7.0206,7.0206" stroke="#000" stroke-linecap="butt" stroke-miterlimit="10" stroke-dasharray="none" stroke-width="0.99287134" fill="none"/>
 <g id="g3159" transform="matrix(0.82434576,0,0,0.82434576,118.57717,111.47007)">
  <path id="path4422" d="m102.27,4.2821c0.13,14.038-2.549,28.097-7.83,41.104-5.282,13.007-13.163,24.953-23.043,34.926-9.8802,9.9731-21.752,17.966-34.709,23.368-12.957,5.4026-26.99,8.211-41.029,8.211s-28.072-2.8084-41.029-8.211-24.829-13.395-34.709-23.368c-9.8802-9.9731-17.761-21.919-23.043-34.926-5.2812-13.007-7.9581-27.066-7.8267-41.104-0.13137-14.038,2.5456-28.097,7.8267-41.104,5.2812-13.007,13.162-24.953,23.043-34.926,9.8802-9.9731,21.752-17.966,34.709-23.368,12.957-5.4026,26.99-8.211,41.029-8.211s28.072,2.8084,41.029,8.211c12.957,5.4027,24.829,13.395,34.709,23.368,9.8802,9.9731,17.761,21.919,23.043,34.926,5.2812,13.007,7.9581,27.066,7.8267,41.104z" stroke="#000" stroke-dasharray="none" stroke-miterlimit="4" stroke-width="5.92863369" fill="none"/>
 </g>
 <g id="g3456" transform="translate(113.85568,114.53974)">
  <path id="red" d="m-49.538-82.585,8.4069,11.582-2.6546,10.899-11.099-1.2166-8.264-11.385,13.61-9.879z" fill-rule="nonzero" fill="#ff213e"/>
 </g>
</svg>
