<?xml version="1.0" encoding="UTF-8" standalone="no"?>
<!-- Created with Inkscape (http://www.inkscape.org/) -->
<svg id="svg3746" xmlns:rdf="http://www.w3.org/1999/02/22-rdf-syntax-ns#" xmlns="http://www.w3.org/2000/svg" height="103.59" width="115.71" version="1.1" xmlns:cc="http://creativecommons.org/ns#" xmlns:dc="http://purl.org/dc/elements/1.1/">
 <metadata id="metadata3751">
  <rdf:RDF>
   <cc:Work rdf:about="">
    <dc:format>image/svg+xml</dc:format>
    <dc:type rdf:resource="http://purl.org/dc/dcmitype/StillImage"/>
    <dc:title/>
   </cc:Work>
  </rdf:RDF>
 </metadata>
 <g id="layer1" transform="translate(-310.13928,-567.1025)">
  <path id="path3413" opacity="0.95" d="m375.14,663.97c25.49,0,46.154-20.664,46.154-46.154,0-25.491-20.664-46.155-46.154-46.155s-46.155,20.664-46.155,46.155c0,25.49,20.665,46.154,46.155,46.154" fill-rule="nonzero" fill="#fafafa"/>
  <path id="path3445" stroke-linejoin="miter" d="m387.61,637.18-24.944,0s-0.06-9.1862,0-11.996c0.21125-9.9662,2.6525-18.57,12.472-26.744,9.1375,8.1738,12.244,16.715,12.471,26.562,0.0663,2.8538,0,12.178,0,12.178z" stroke="#000" stroke-linecap="butt" stroke-miterlimit="10" stroke-dasharray="none" stroke-width="1.25" fill="none"/>
  <g id="g4566" stroke-linejoin="miter" transform="translate(0.580615,0)" stroke="#000" stroke-linecap="butt" stroke-dasharray="none" stroke-miterlimit="4" stroke-width="0.625" fill="none">
   <path id="path3449" d="m379.44,620.78-9.765,0"/>
   <path id="path3453" d="m374.55,615.9,0,9.765"/>
  </g>
  <g id="twa">
   <path id="path3796" opacity="0.95" d="m326.07,608.97a47.679,47.679,0,1,1,-95.357,0,47.679,47.679,0,1,1,95.357,0z" transform="translate(96.742057,8.8437657)" stroke="#000" stroke-miterlimit="4" stroke-dasharray="none" stroke-width="6.06400013" fill="none"/>
   <path id="path3467" fill-rule="nonzero" fill="#ff213e" d="m338.89,568.29,13.742,13.271-0.8025,12.54-12.48,0.8225-13.546-13.082,13.086-13.551z"/>
  </g>
  <path id="path3473" stroke-linejoin="miter" d="m336.55,645.87-8.8388,8.8388" stroke="#000" stroke-linecap="butt" stroke-miterlimit="10" stroke-dasharray="none" stroke-width="1.25" fill="none"/>
  <text id="text3475" transform="matrix(0.70710678,-0.70710678,0.70710678,0.70710678,0,0)" font-size="15px" y="700.38464" x="-249.83383">
   <tspan id="tspan3477" style="writing-mode:lr-tb;" font-weight="600" fill-rule="nonzero" font-size="18.74999619px" font-variant="normal" y="700.38464" x="-249.83383" font-family="AvenirNext" fill="#000000">N</tspan>
  </text>
  <path id="path3481" stroke-linejoin="miter" d="m375.13,598.29,0-30.654" stroke-dashoffset="0" stroke="#000" stroke-linecap="butt" stroke-miterlimit="4" stroke-dasharray="2.35835746, 2.35835746" stroke-width="0.58929473" fill="none"/>
 </g>
</svg>
