<svg xmlns="http://www.w3.org/2000/svg" viewBox="0 0 21.01 21.01"><defs><style>.cls-1{fill:#898888;}</style></defs><title>Choice_square</title><g id="Layer_2" data-name="Layer 2"><g id="Calque_1" data-name="Calque 1"><path class="cls-1" d="M17.22,2.32a1.47,1.47,0,0,1,1.47,1.47V17.22a1.47,1.47,0,0,1-1.47,1.47H3.79a1.47,1.47,0,0,1-1.47-1.47V3.79A1.47,1.47,0,0,1,3.79,2.32H17.22m0-2.32H3.79A3.79,3.79,0,0,0,0,3.79V17.22A3.79,3.79,0,0,0,3.79,21H17.22A3.79,3.79,0,0,0,21,17.22V3.79A3.79,3.79,0,0,0,17.22,0Z"/></g></g></svg>