<svg xmlns="http://www.w3.org/2000/svg" viewBox="0 0 51.59 16.14"><defs><style>.cls-1{fill:#fff;}</style></defs><title>distance_white</title><g id="Layer_2" data-name="Layer 2"><g id="Calque_1" data-name="Calque 1"><path class="cls-1" d="M51.29,7.37,44.15.29A1.21,1.21,0,0,0,42.94.08c-.37.15-.87.52-.87.92V6h-33V1A1,1,0,0,0,7.36.29L.29,7.37a1,1,0,0,0,0,1.41l7.07,7.07a1,1,0,0,0,1.71-.71V10h33v5.13c0,.4.49.77.87.92a2.64,2.64,0,0,0,.63.08,1,1,0,0,0,.69-.29l7.05-7.07A1,1,0,0,0,51.29,7.37Z"/></g></g></svg>