<?xml version="1.0" encoding="utf-8"?>
<!-- Generator: Adobe Illustrator 16.0.0, SVG Export Plug-In . SVG Version: 6.00 Build 0)  -->
<!DOCTYPE svg PUBLIC "-//W3C//DTD SVG 1.1//EN" "http://www.w3.org/Graphics/SVG/1.1/DTD/svg11.dtd">
<svg version="1.1" id="Calque_1" xmlns="http://www.w3.org/2000/svg" xmlns:xlink="http://www.w3.org/1999/xlink" x="0px" y="0px"
	 width="62px" height="51.988px" viewBox="0 0 62 51.988" enable-background="new 0 0 62 51.988" xml:space="preserve">
<path display="none" fill-rule="evenodd" clip-rule="evenodd" fill="#EE771B" d="M103.189,43.423c-1.5,15.667-17.221,25.5-24,25.5
	l-35.201-0.25C26.167,70.09,16.189,51.05,16.189,44.423V25.59c7-19.167,24.762-23.667,31.541-23.667h25.959
	c13,0,29.5,16.133,29.5,22.761V43.423z"/>
<g>
	<path fill="#FFFFFF" stroke="#EE771B" stroke-miterlimit="10" d="M26.404,0.495C12.315,0.495,0.88,11.916,0.88,26.033v0.257
		c0.137,13.967,11.517,25.251,25.523,25.251h0.014"/>
	<path fill="#FFFFFF" stroke="#EE771B" stroke-miterlimit="10" d="M26.409,6.382c-10.833,0-19.627,8.796-19.627,19.645
		c0,0.08,0,0.175,0.014,0.258c0.123,10.709,8.862,19.367,19.613,19.367h0.014"/>
	<path fill="#FFFFFF" stroke="#EE771B" stroke-miterlimit="10" d="M26.417,37.697h-0.014c-6.361,0-11.531-5.085-11.668-11.407
		v-0.257c0-6.471,5.225-11.695,11.668-11.695"/>
	<path fill="#FFFFFF" stroke="#EE771B" stroke-miterlimit="10" d="M26.417,30.682h-0.014c-2.489,0-4.515-1.941-4.638-4.392
		c-0.013-0.095-0.013-0.175-0.013-0.257c0-2.587,2.079-4.666,4.65-4.666"/>
	<polyline fill="#FFFFFF" stroke="#EE771B" stroke-width="0.5" stroke-miterlimit="10" points="0.886,26.285 6.281,26.285 
		10.94,26.285 17.207,26.285 22.751,26.285 26.409,26.285 	"/>
	<line fill="#FFFFFF" stroke="#EE771B" stroke-width="0.5" stroke-miterlimit="10" x1="26.422" y1="51.988" x2="26.404" y2="0"/>
</g>
<rect x="18.823" y="-1.334" fill="none" width="46.746" height="55.375"/>
<text transform="matrix(1 0 0 1 18.8232 52.0278)" fill="#EE771B" font-family="'Muli'" font-size="73.2">P</text>
<rect x="97.157" y="63.444" fill="none" width="17.965" height="11.797"/>
<text transform="matrix(1 0 0 1 97.1567 75.1084)" display="none" font-family="'Muli'" font-size="16">ol</text>
</svg>
