<?xml version="1.0" encoding="utf-8"?>
<!-- Generator: Adobe Illustrator 17.0.0, SVG Export Plug-In . SVG Version: 6.00 Build 0)  -->
<!DOCTYPE svg PUBLIC "-//W3C//DTD SVG 1.1//EN" "http://www.w3.org/Graphics/SVG/1.1/DTD/svg11.dtd">
<svg version="1.1" id="Layer_1" xmlns="http://www.w3.org/2000/svg" xmlns:xlink="http://www.w3.org/1999/xlink" x="0px" y="0px"
	 width="2592px" height="3456px" viewBox="0 0 2592 3456" enable-background="new 0 0 2592 3456" xml:space="preserve">
<title>10minutes</title>
<g id="Layer_2">
	<g id="Calque_1">
		<path fill="#FFFFFF" d="M1296.443,432C580.927,432,0.886,1012.041,0.886,1727.557s580.041,1295.557,1295.557,1295.557
			c715.17,0,1295.068-579.501,1295.557-1294.671C2591.512,1012.985,2011.9,432.977,1296.443,432z M1296.443,2669.539
			c-519.753,0-941.095-421.343-941.095-941.095s421.343-941.095,941.095-941.095s941.095,421.343,941.095,941.095l0,0
			C2236.563,2247.791,1815.791,2668.563,1296.443,2669.539z"/>
		<path fill="#FFFFFF" d="M1697.871,1298.658l-418.265,432.443l-272.935-191.409c-60.91-40.978-143.507-24.819-184.484,36.091
			c-39.673,58.971-25.937,138.718,31.18,181.017l365.982,256.985c53.428,37.688,126.331,30.924,171.914-15.951l498.018-514.855
			c51.143-52.856,49.755-137.164-3.102-188.308c-52.856-51.143-137.164-49.755-188.308,3.101V1298.658z"/>
	</g>
</g>
</svg>
