<svg xmlns="http://www.w3.org/2000/svg" viewBox="0 0 29.25 29.25"><defs><style>.cls-1{fill:#fff;}</style></defs><title>1hour_white</title><g id="Layer_2" data-name="Layer 2"><g id="Calque_1" data-name="Calque 1"><path class="cls-1" d="M14.62,0A14.62,14.62,0,1,0,29.25,14.63,14.64,14.64,0,0,0,14.62,0Zm0,25.25A10.62,10.62,0,1,1,25.25,14.63,10.64,10.64,0,0,1,14.62,25.25Z"/><path class="cls-1" d="M17.69,8.71a1.5,1.5,0,0,0-2.07.45l-2.37,3.68a1.61,1.61,0,0,0-.24.88l.13,7.57a1.62,1.62,0,0,0,1.5,1.61h0a1.62,1.62,0,0,0,1.48-1.66L16,14.06l2.13-3.28A1.49,1.49,0,0,0,17.69,8.71Z"/></g></g></svg>