<?xml version="1.0" encoding="utf-8"?>
<!-- Generator: Adobe Illustrator 17.0.0, SVG Export Plug-In . SVG Version: 6.00 Build 0)  -->
<!DOCTYPE svg PUBLIC "-//W3C//DTD SVG 1.1//EN" "http://www.w3.org/Graphics/SVG/1.1/DTD/svg11.dtd">
<svg version="1.1" id="Layer_1" xmlns="http://www.w3.org/2000/svg" xmlns:xlink="http://www.w3.org/1999/xlink" x="0px" y="0px"
	 width="2592px" height="3456px" viewBox="0 0 2592 3456" enable-background="new 0 0 2592 3456" xml:space="preserve">
<title>1hour</title>
<g id="Layer_2">
	<g id="Calque_1">
		<path fill="#FFFFFF" d="M1295.557,432C580.041,432.49,0.397,1012.927,0.887,1728.443s580.927,1295.16,1296.443,1294.67
			c714.824-0.489,1294.181-579.846,1294.67-1294.67C2591.511,1012.64,2011.36,432.489,1295.557,432z M1295.557,2669.539
			c-519.752-0.49-940.698-422.229-940.209-941.981c0.489-519.752,422.229-940.698,941.981-940.209
			c519.406,0.489,940.209,421.688,940.209,941.095C2236.562,2248.137,1815.251,2669.051,1295.557,2669.539z"/>
		<path fill="#FFFFFF" d="M1567.606,1203.84c-61.685-39.533-143.728-21.697-183.434,39.877l-210.018,326.105
			c-14.458,23.4-21.844,50.481-21.268,77.982l11.52,670.818c0.257,74.97,58.159,137.118,132.923,142.671l0,0
			c75.785-6.543,133.311-71.065,131.151-147.102l-10.634-636.259l188.751-290.658c39.979-60.986,22.95-142.834-38.036-182.813
			C1568.244,1204.252,1567.926,1204.045,1567.606,1203.84z"/>
	</g>
</g>
</svg>
