<?xml version="1.0" encoding="utf-8"?>
<!-- Generator: Adobe Illustrator 17.0.0, SVG Export Plug-In . SVG Version: 6.00 Build 0)  -->
<!DOCTYPE svg PUBLIC "-//W3C//DTD SVG 1.1//EN" "http://www.w3.org/Graphics/SVG/1.1/DTD/svg11.dtd">
<svg version="1.1" id="Layer_1" xmlns="http://www.w3.org/2000/svg" xmlns:xlink="http://www.w3.org/1999/xlink" x="0px" y="0px"
	 width="2592px" height="3456px" viewBox="0 0 2592 3456" enable-background="new 0 0 2592 3456" xml:space="preserve">
<title>24hours</title>
<g id="Layer_2">
	<g id="Calque_1">
		<path fill="#FFFFFF" d="M1295.557,432C580.041,432.49,0.397,1012.927,0.887,1728.443s580.927,1295.16,1296.443,1294.67
			c714.824-0.489,1294.181-579.846,1294.67-1294.67C2591.511,1012.64,2011.36,432.489,1295.557,432z M1295.557,2669.539
			c-519.752-0.49-940.698-422.229-940.209-941.981c0.489-519.752,422.229-940.698,941.981-940.209
			c519.406,0.489,940.209,421.688,940.209,941.095C2236.562,2248.137,1815.251,2669.051,1295.557,2669.539z"/>
		<path fill="#FFFFFF" d="M1240.615,999.138c-73.411,0-132.923,59.512-132.923,132.923v772.726
			c0,73.411,59.512,132.923,132.923,132.923c73.411,0,132.923-59.512,132.923-132.923v-772.726
			C1373.538,1058.65,1314.027,999.138,1240.615,999.138z"/>
	</g>
</g>
</svg>
