<?xml version="1.0" encoding="utf-8"?>
<!-- Generator: Adobe Illustrator 17.0.0, SVG Export Plug-In . SVG Version: 6.00 Build 0)  -->
<!DOCTYPE svg PUBLIC "-//W3C//DTD SVG 1.1//EN" "http://www.w3.org/Graphics/SVG/1.1/DTD/svg11.dtd">
<svg version="1.1" id="Layer_1" xmlns="http://www.w3.org/2000/svg" xmlns:xlink="http://www.w3.org/1999/xlink" x="0px" y="0px"
	 width="2592px" height="3456px" viewBox="0 0 2592 3456" enable-background="new 0 0 2592 3456" xml:space="preserve">
<title>30minutes</title>
<g id="Layer_2">
	<g id="Calque_1">
		<path fill="#FFFFFF" d="M1296.443,432C580.927,432,0.886,1012.041,0.886,1727.557s580.041,1295.557,1295.557,1295.557
			c715.17,0,1295.068-579.501,1295.557-1294.671C2591.512,1012.985,2011.9,432.977,1296.443,432z M1296.443,2669.539
			c-519.753,0-941.095-421.343-941.095-941.095s421.343-941.095,941.095-941.095s941.095,421.343,941.095,941.095l0,0
			C2236.563,2247.791,1815.791,2668.563,1296.443,2669.539z"/>
		<path fill="#FFFFFF" d="M1402.782,1617.674L1036.8,1373.982c-61.176-41.6-144.493-25.73-186.092,35.446
			c-41.6,61.176-25.73,144.492,35.446,186.092l306.609,203.815v484.726c-0.058,73.411,59.406,132.97,132.817,133.029
			c73.411,0.059,132.971-59.406,133.029-132.817c0-0.071,0-0.141,0-0.212v-556.505
			C1459.132,1683.994,1438.274,1642.939,1402.782,1617.674z"/>
	</g>
</g>
</svg>
