<svg xmlns="http://www.w3.org/2000/svg" viewBox="0 0 29.25 29.25"><defs><style>.cls-1{fill:#fff;}</style></defs><title>30minutes_white</title><g id="Layer_2" data-name="Layer 2"><g id="Calque_1" data-name="Calque 1"><path class="cls-1" d="M14.63,0A14.62,14.62,0,1,0,29.25,14.63,14.64,14.64,0,0,0,14.63,0Zm0,25.25A10.62,10.62,0,1,1,25.25,14.63,10.64,10.64,0,0,1,14.63,25.25Z"/><path class="cls-1" d="M15.83,13.38,11.7,10.63A1.5,1.5,0,1,0,10,13.13l3.46,2.3V20.9a1.5,1.5,0,1,0,3,0V14.62A1.5,1.5,0,0,0,15.83,13.38Z"/></g></g></svg>