<?xml version="1.0" encoding="utf-8"?>
<!-- Generator: Adobe Illustrator 15.1.0, SVG Export Plug-In . SVG Version: 6.00 Build 0)  -->
<!DOCTYPE svg PUBLIC "-//W3C//DTD SVG 1.1//EN" "http://www.w3.org/Graphics/SVG/1.1/DTD/svg11.dtd">
<svg version="1.1" id="Layer_1" xmlns="http://www.w3.org/2000/svg" xmlns:xlink="http://www.w3.org/1999/xlink" x="0px" y="0px"
	 width="11.941px" height="27.33px" viewBox="1 -7.925 11.941 27.33" enable-background="new 1 -7.925 11.941 27.33"
	 xml:space="preserve">
<g id="layer1" transform="translate(-197.98762,-352.07679)">
	<path id="path672" fill="#7F7F7F" d="M210.113,344.967l-2.024,19.408l-3.257,6.292l-3.029-6.495l-2-19.205H210.113L210.113,344.967
		z"/>
	<g id="g678" transform="matrix(-1.2134606,0.30002229,0.30002229,1.2134606,214.39383,353.12538)">
		
			<path id="path680" fill="#7F7F7F" stroke="#7F7F7F" stroke-width="1.63" stroke-linecap="round" stroke-linejoin="round" stroke-miterlimit="10" d="
			M1.758-7.158l5.3,14.684l3.737,4.261L11.9,6.162L9.765-9.137L1.758-7.158z"/>
	</g>
</g>
<g enable-background="new    ">
	<path fill="#FFFFFF" d="M6.196-5.041h1.62l2.957,7.584H9.148L8.521,0.822L5.489,0.823L4.828,2.545L3.162,2.546L6.196-5.041z
		 M8.051-0.457L7.024-3.271L5.981-0.457H8.051z"/>
</g>
</svg>
