<?xml version="1.0" encoding="utf-8"?>
<!-- Generator: Adobe Illustrator 15.1.0, SVG Export Plug-In . SVG Version: 6.00 Build 0)  -->
<!DOCTYPE svg PUBLIC "-//W3C//DTD SVG 1.1//EN" "http://www.w3.org/Graphics/SVG/1.1/DTD/svg11.dtd">
<svg version="1.1" id="Layer_1" xmlns="http://www.w3.org/2000/svg" xmlns:xlink="http://www.w3.org/1999/xlink" x="0px" y="0px"
	 width="12px" height="34px" viewBox="4.133 -2.665 11.74 33.68" enable-background="new 4.133 -2.665 11.74 33.68"
	 xml:space="preserve">
<path fill="#FFFFFF" d="M5.274,31.016c1.521-0.016,3.042-0.02,4.563-0.02c1.556,0,3.113,0.004,4.666,0.02
	c-0.025,0,0.086-0.002,0.264-0.006c0.645-0.195,1.113-0.424,1.105-0.652c0-23.27-3.455-30.693-5.963-33.023H9.907
	c-2.542,2.372-5.774,9.736-5.77,33.017C4.13,30.583,4.615,30.815,5.274,31.016z"/>
<path fill="#FF0032" fill-opacity="0.5" d="M13.836,30.008c1.433-14.81-3.832-16.236-3.832-16.236S4.66,15.205,6.203,30.015
	C7.923,29.988,11.728,29.986,13.836,30.008z"/>
<path fill="#FF0032" fill-opacity="0.5" d="M13.836,30.008c1.433-14.81-3.832-16.236-3.832-16.236S4.66,15.205,6.203,30.015
	C7.923,29.988,11.728,29.986,13.836,30.008z"/>
<path fill="#FF0032" fill-opacity="0.5" d="M13.836,30.008c1.433-14.81-3.832-16.236-3.832-16.236S4.66,15.205,6.203,30.015
	C7.923,29.988,11.728,29.986,13.836,30.008z"/>
<path fill="#FF0032" fill-opacity="0.5" d="M13.838,30.008c1.433-14.81-3.832-16.236-3.832-16.236s-5.344,1.433-3.801,16.243
	C7.925,29.988,11.729,29.986,13.838,30.008z"/>
<path fill="#FF0032" fill-opacity="0.5" d="M13.838,30.008c1.433-14.81-3.832-16.236-3.832-16.236s-5.344,1.433-3.801,16.243
	C7.925,29.988,11.729,29.986,13.838,30.008z"/>
<path fill="#FF0032" fill-opacity="0.5" d="M13.836,30.008c1.433-14.81-3.832-16.236-3.832-16.236S4.66,15.205,6.203,30.015
	C7.923,29.988,11.728,29.986,13.836,30.008z"/>
<ellipse fill="#FF0032" cx="10.003" cy="11.175" rx="0.719" ry="0.688"/>
</svg>
