<?xml version="1.0" encoding="utf-8"?>
<!-- Generator: Adobe Illustrator 20.1.0, SVG Export Plug-In . SVG Version: 6.00 Build 0)  -->
<svg version="1.1" baseProfile="tiny" id="Layer_1" xmlns="http://www.w3.org/2000/svg" xmlns:xlink="http://www.w3.org/1999/xlink"
	 x="0px" y="0px" width="46.5px" height="63px" viewBox="0 0 46.5 63" overflow="scroll" xml:space="preserve">
<title>portrait</title>
<path fill="#FFFFFF" d="M44.9,22.9c0-12-9.7-21.7-21.7-21.7c-12,0-21.7,9.7-21.7,21.7c0,9.5,6.1,17.6,14.6,20.5l7,18.9l7-18.9
	C38.8,40.5,44.9,32.4,44.9,22.9z"/>
<g id="Layer_2">
	<g id="Layer_1-2">
		<g>
			<path fill="#FF002F" d="M33.7,16.7c2.1,2.5,2.1,6.1,0,8.6c-1.2,1.4-2.7,2.5-4.4,3.2c-1.9,0.8-3.9,1.2-6,1.1
				c-0.6,0-1.3-0.1-1.9-0.1c-1.8,1.6-3.9,2.7-6.2,3.3c-0.5,0.1-1,0.2-1.5,0.3h-0.1c-0.1,0-0.3-0.1-0.4-0.1c-0.1-0.1-0.2-0.2-0.2-0.4
				l0,0c0-0.1,0-0.1,0-0.2v-0.1c0,0,0-0.1,0.1-0.1l0.1-0.1l0.1-0.2l0.1-0.1l0.4-0.5l0.5-0.5c0.1-0.1,0.2-0.3,0.4-0.5
				c0.2-0.2,0.3-0.4,0.4-0.7c0.1-0.2,0.2-0.5,0.4-0.8c0.1-0.3,0.3-0.7,0.3-1c-1.3-0.7-2.4-1.7-3.3-3c-0.7-1.1-1.2-2.4-1.2-3.7
				c0-1.6,0.6-3.2,1.6-4.4c1.2-1.4,2.7-2.4,4.4-3.1c1.9-0.7,3.9-1.1,6-1.1s4.1,0.4,6,1.1C31,14.3,32.5,15.4,33.7,16.7z M28.4,15.1
				c-1.6-0.6-3.4-0.9-5.1-0.9c-1.7,0-3.5,0.3-5.1,0.9c-1.5,0.5-2.7,1.4-3.8,2.5C13.5,18.5,13,19.7,13,21c0,1,0.4,2,1,2.9
				c0.7,1,1.6,1.8,2.7,2.4l1.2,0.7l-0.4,1.3c-0.2,0.8-0.6,1.6-1,2.3c1.3-0.6,2.6-1.3,3.7-2.3l0.6-0.5l0.8,0.1
				c0.6,0.1,1.2,0.1,1.7,0.1c1.7,0,3.5-0.3,5.1-0.9c1.4-0.5,2.7-1.4,3.8-2.5c0.9-0.9,1.4-2.1,1.4-3.4s-0.5-2.5-1.4-3.4
				C31.2,16.5,29.9,15.7,28.4,15.1z"/>
		</g>
	</g>
</g>
</svg>
