<?xml version="1.0" encoding="utf-8"?>
<!-- Generator: Adobe Illustrator 17.0.0, SVG Export Plug-In . SVG Version: 6.00 Build 0)  -->
<!DOCTYPE svg PUBLIC "-//W3C//DTD SVG 1.1//EN" "http://www.w3.org/Graphics/SVG/1.1/DTD/svg11.dtd">
<svg version="1.1" id="Layer_1" xmlns="http://www.w3.org/2000/svg" xmlns:xlink="http://www.w3.org/1999/xlink" x="0px" y="0px"
	 width="2592px" height="3456px" viewBox="0 0 2592 3456" enable-background="new 0 0 2592 3456" xml:space="preserve">
<title>distance</title>
<g id="Layer_2">
	<g id="Calque_1">
		<path fill="#FFFFFF" d="M2576.927,1692.83l-358.73-355.715c-16.841-14.304-40.117-18.343-60.793-10.551
			c-18.59,7.536-43.711,26.126-43.711,46.223v251.211H455.698v-251.211c0.161-27.748-22.202-50.372-49.949-50.534
			c-13.498-0.078-26.46,5.278-35.965,14.862L14.57,1692.83c-19.48,19.596-19.48,51.245,0,70.842l355.213,355.213
			c19.54,19.702,51.351,19.833,71.053,0.293c9.584-9.505,14.94-22.467,14.862-35.965v-258.245h1657.996v257.743
			c0,20.097,24.619,38.687,43.711,46.223c10.351,2.609,20.979,3.958,31.653,4.02c13.006-0.186,25.433-5.409,34.667-14.57
			l354.208-355.213C2596.805,1743.361,2596.358,1712.092,2576.927,1692.83z"/>
	</g>
</g>
</svg>
