<svg xmlns="http://www.w3.org/2000/svg" viewBox="0 0 65 65"><defs><style>.cls-1{fill:#fc0f3a;}.cls-2{fill:#f7f7f7;}</style></defs><title>Facebook_red</title><g id="Layer_2" data-name="Layer 2"><g id="Calque_1" data-name="Calque 1"><rect class="cls-1" width="65" height="65" rx="15.67" ry="15.67"/><path class="cls-2" d="M27.55,54.09q0-9.06,0-18.12c0-.69-.24-.87-.89-.85-1.67,0-3.34,0-5,0-.57,0-.82-.13-.81-.76,0-2.16,0-4.31,0-6.47a6,6,0,0,1,.09-.67c1.91,0,3.77,0,5.63,0,.8,0,1-.25,1-1q0-3.07.09-6.15a8.91,8.91,0,0,1,6.64-8.41c2.95-.82,5.94-.38,8.92-.21.52,0,.53.43.53.83,0,1.83,0,3.67,0,5.5,0,.62-.16.87-.83.84-1.24,0-2.48,0-3.72,0-2.33.06-3.35,1.06-3.39,3.29,0,1.51,0,3,0,4.53,0,.62.21.79.8.78,1.92,0,3.83,0,5.75,0,.34,0,.68,0,1.11,0-.33,2.47-.67,4.83-1,7.2-.06.55-.31.65-.78.65-1.73,0-3.45,0-5.18,0-.57,0-.74.18-.74.74q0,9.14,0,18.29"/></g></g></svg>