<svg xmlns="http://www.w3.org/2000/svg" viewBox="0 0 65 65"><defs><style>.cls-1{fill:#e6e6e6;}.cls-2{fill:#898888;fill-rule:evenodd;}</style></defs><title>Google_grey</title><g id="Layer_2" data-name="Layer 2"><g id="Calque_1" data-name="Calque 1"><rect class="cls-1" width="65" height="65" rx="15.67" ry="15.67"/><path class="cls-2" d="M26.74,37.75a4.42,4.42,0,0,1-1-5c-.57-.08-1-.18-1.46-.21a8.16,8.16,0,0,1-7.82-6.93,8.27,8.27,0,0,1,5.64-9.31,14.47,14.47,0,0,1,4-.74c3.56-.12,7.12-.07,10.67-.09.24,0,.48,0,.85.06-1.2,1.79-2.48,3.12-4.83,2.74l.73.76a7.33,7.33,0,0,1,.1,10.06c-.84.9-1.79,1.7-2.64,2.59-1.11,1.16-1.15,2.16,0,3.34.69.74,1.5,1.36,2.26,2s1.81,1.47,2.6,2.31a7.57,7.57,0,0,1-1.24,11.81,14.31,14.31,0,0,1-9.55,2.33,26,26,0,0,1-6.55-1.4c-2.7-1-4.54-2.91-4.61-6s1.53-5.35,4.3-6.75a18.24,18.24,0,0,1,7.29-1.56C25.85,37.85,26.19,37.81,26.74,37.75ZM26.05,51.7c1.34-.28,2.71-.47,4-.87a5.31,5.31,0,0,0,4.08-4.47,5.66,5.66,0,0,0-2.72-5.77A9.86,9.86,0,0,0,20,41.43a5.14,5.14,0,0,0-.05,7.94A9.49,9.49,0,0,0,26.05,51.7Zm5.12-25.88a9,9,0,0,0-2.93-7c-2.59-2.52-6.17-1.67-7.36,1.76a8.53,8.53,0,0,0,2.69,9.13,5,5,0,0,0,5.4.85c1.82-.83,2.23-2.63,2.2-4.51Z"/><path class="cls-2" d="M52.41,21.12h-5v-5H45v5.08H39.87v2.64H45.1v5h2.4v-5h4.91Z"/></g></g></svg>