<?xml version="1.0" encoding="utf-8"?>
<!-- Generator: Adobe Illustrator 20.1.0, SVG Export Plug-In . SVG Version: 6.00 Build 0)  -->
<svg version="1.1" baseProfile="tiny" id="Layer_1" xmlns="http://www.w3.org/2000/svg" xmlns:xlink="http://www.w3.org/1999/xlink"
	 x="0px" y="0px" width="46.5px" height="63px" viewBox="0 0 46.5 63" overflow="scroll" xml:space="preserve">
<title>portrait</title>
<path fill="#FFFFFF" d="M44.9,22.9c0-12-9.7-21.7-21.7-21.7c-12,0-21.7,9.7-21.7,21.7c0,9.5,6.1,17.6,14.6,20.5l7,18.9l7-18.9
	C38.8,40.5,44.9,32.4,44.9,22.9z"/>
<g id="Layer_2">
	<g id="Layer_1-2">
		<g>
			<path fill="#FF002F" d="M36.1,14.3v16.3c0,1.2-1,2.1-2.1,2.1H12.6c-0.6,0-1.1-0.2-1.5-0.6c-0.4-0.4-0.6-0.9-0.6-1.5V14.3
				c0-0.6,0.2-1.1,0.6-1.5c0.4-0.4,0.9-0.6,1.5-0.6H34c0.6,0,1.1,0.2,1.5,0.6C35.9,13.2,36.1,13.7,36.1,14.3z M34,13.9H12.6
				c-0.2,0-0.4,0.2-0.4,0.4v16.3c0,0.2,0.2,0.4,0.4,0.4c0,0,0,0,0,0H34c0.2,0,0.4-0.2,0.4-0.4l0,0V14.3C34.4,14.1,34.2,13.9,34,13.9
				z M18.2,16.3c0.5,0.5,0.8,1.1,0.8,1.8c0,1.4-1.1,2.6-2.5,2.6c0,0,0,0,0,0c-1.4,0-2.6-1.1-2.6-2.5c0,0,0,0,0,0
				c0-1.4,1.1-2.6,2.5-2.6c0,0,0,0,0,0C17.1,15.6,17.8,15.8,18.2,16.3z M32.7,23.3v6H13.8v-2.6l4.3-4.3l2.1,2.1l6.9-6.9L32.7,23.3z"
				/>
		</g>
	</g>
</g>
</svg>
