<svg xmlns="http://www.w3.org/2000/svg" viewBox="0 0 65 65"><defs><style>.cls-1{fill:#fc0f3a;}.cls-2{fill:#f7f7f7;fill-rule:evenodd;}</style></defs><title>Linkedin_red</title><g id="Layer_2" data-name="Layer 2"><g id="Calque_1" data-name="Calque 1"><rect class="cls-1" width="65" height="65" rx="15.67" ry="15.67"/><path class="cls-2" d="M52.78,52.87h-.33c-2.62,0-5.24,0-7.86,0-.29,0-.35-.1-.35-.37q0-7.09,0-14.18a9,9,0,0,0-.62-3.62,3.5,3.5,0,0,0-3.06-2.21,6,6,0,0,0-2.9.36,3.87,3.87,0,0,0-2.16,2.21,7.94,7.94,0,0,0-.62,3.09c0,4.76,0,9.52-.06,14.29,0,.49,0,.42-.44.43-2.57,0-5.13,0-7.69,0-.29,0-.36-.09-.36-.36q0-13.24,0-26.48c0-.37,0-.38.37-.38h7.41c.35,0,.36,0,.36.36v3.08c0,.1,0,.19,0,.37.27-.39.48-.71.71-1a8,8,0,0,1,2.58-2.22A9.48,9.48,0,0,1,42.28,25a13.18,13.18,0,0,1,4.76.67A7.4,7.4,0,0,1,51,29a11.3,11.3,0,0,1,1.38,4.08,20,20,0,0,1,.28,2.73c.05,2.78.06,5.55.07,8.33s0,5.57,0,8.36Z"/><path class="cls-2" d="M12.62,52.87V26c0-.37,0-.37.39-.37H20.7c.4,0,.4,0,.4.4V52.48c0,.39,0,.39-.38.39h-8.1Z"/><path class="cls-2" d="M12,17.08a4.93,4.93,0,0,1,9.86,0,4.93,4.93,0,1,1-9.86,0Z"/></g></g></svg>