<svg xmlns="http://www.w3.org/2000/svg" viewBox="0 0 65 65"><defs><style>.cls-1{fill:#fc0f3a;}.cls-2{fill:#f7f7f7;}</style></defs><title>mail_red</title><g id="Layer_2" data-name="Layer 2"><g id="Calque_1" data-name="Calque 1"><rect class="cls-1" width="65" height="65" rx="15.67" ry="15.67"/><path class="cls-2" d="M13.58,17.15a3.27,3.27,0,0,0-1.41.32L30.57,36.09a2.09,2.09,0,0,0,3,0L52,17.47a3.27,3.27,0,0,0-1.41-.32Zm40,1.85L39.75,33,53.58,45.83a3.25,3.25,0,0,0,.33-1.43v-24A3.24,3.24,0,0,0,53.58,19Zm-43,0a3.31,3.31,0,0,0-.31,1.4v24a3.28,3.28,0,0,0,.32,1.43L24.44,33ZM38.21,34.54l-3,3.08a4.32,4.32,0,0,1-6.13,0l-3-3.07L12.2,47.36a3.26,3.26,0,0,0,1.38.31H50.64A3.26,3.26,0,0,0,52,47.36L38.21,34.54Z"/></g></g></svg>