<svg xmlns="http://www.w3.org/2000/svg" viewBox="0 0 65 65"><defs><style>.cls-1{fill:#fc0f3a;}.cls-2{fill:#f7f7f7;}</style></defs><title>Pinterest_red</title><g id="Layer_2" data-name="Layer 2"><g id="Calque_1" data-name="Calque 1"><rect class="cls-1" width="65" height="65" rx="15.67" ry="15.67"/><path class="cls-2" d="M33.2,52.18h-2l-.15,0a18.85,18.85,0,0,1-3.15-.45l-1.16-.29,0-.06.08-.13a15.23,15.23,0,0,0,1.85-4c.33-1.24.64-2.48,1-3.72L30,42c.11.15.19.29.29.42a5.29,5.29,0,0,0,2.58,1.67,7,7,0,0,0,3.32.18,9.06,9.06,0,0,0,5.19-2.66,12.25,12.25,0,0,0,2.93-5,17.54,17.54,0,0,0,.82-4.89,10.6,10.6,0,0,0-.5-3.79,11.13,11.13,0,0,0-6.2-6.74,13.34,13.34,0,0,0-6.13-1.12,16.51,16.51,0,0,0-3.4.45,12.82,12.82,0,0,0-6.15,3.34,11.42,11.42,0,0,0-3.57,9.5A9.17,9.17,0,0,0,20,36.46a5.81,5.81,0,0,0,3,3A.68.68,0,0,0,24,39c.13-.5.24-1,.38-1.48a1,1,0,0,0-.22-1,5.52,5.52,0,0,1-1.33-3.88,10.41,10.41,0,0,1,.19-1.84,8.81,8.81,0,0,1,3.66-5.68,9.29,9.29,0,0,1,4.78-1.65,10.6,10.6,0,0,1,3.86.38,7,7,0,0,1,3.08,1.81,7.09,7.09,0,0,1,2,4.94,16.27,16.27,0,0,1-.15,2.62,13.93,13.93,0,0,1-1.09,4,7.63,7.63,0,0,1-2,2.82,4.18,4.18,0,0,1-3.49,1A2.92,2.92,0,0,1,31.16,38a6.17,6.17,0,0,1,.33-1.66c.37-1.29.77-2.58,1.14-3.88A6.5,6.5,0,0,0,32.93,30a2.82,2.82,0,0,0-.66-1.63,2.51,2.51,0,0,0-2.61-.73,3.47,3.47,0,0,0-2.21,1.73,6.15,6.15,0,0,0-.82,3.48,7.7,7.7,0,0,0,.57,2.69.39.39,0,0,1,0,.23C26.47,38.88,25.75,42,25,45.11a18.23,18.23,0,0,0-.59,4.84c0,.19,0,.39,0,.6l-.19-.08A19.38,19.38,0,0,1,14.63,41a19,19,0,0,1-1.7-6.55c0-.23,0-.47-.07-.7V32.05c0-.23,0-.46.07-.68a18.66,18.66,0,0,1,.88-4.45A19.35,19.35,0,0,1,26,14.59a18.79,18.79,0,0,1,4.65-.94l.68-.07H33l.21,0c.62.06,1.23.09,1.84.18a18.84,18.84,0,0,1,6,2A19.32,19.32,0,0,1,51.4,31.29c0,.2,0,.4.06.6v2a.75.75,0,0,0,0,.14A18.21,18.21,0,0,1,51,37.21,19.32,19.32,0,0,1,33.79,52.12Z"/></g></g></svg>