<svg xmlns="http://www.w3.org/2000/svg" viewBox="0 0 42 39"><defs><style>.cls-1{fill:#e6e6e6;}.cls-2{fill:#fc0f3a;}</style></defs><title>undo</title><g id="Layer_2" data-name="Layer 2"><g id="Calque_1" data-name="Calque 1"><rect class="cls-1" width="42" height="39" rx="14.06" ry="14.06"/><path class="cls-2" d="M31.08,21H26.42a.57.57,0,0,1,0,.07,6.09,6.09,0,0,1-6.08,6.09c-3.36,0-4.69-2.73-4.69-6.08S19,15.07,23,15v3.89l8.45-6.14L23,6.62v3.72c-5,.07-12,4.86-12,10.74S15.11,31.82,21,31.82a10.47,10.47,0,0,0,10.4-10.75A2.05,2.05,0,0,0,31.08,21Z"/></g></g></svg>