<?xml version="1.0" encoding="utf-8"?>
<!-- Generator: Adobe Illustrator 15.1.0, SVG Export Plug-In . SVG Version: 6.00 Build 0)  -->
<!DOCTYPE svg PUBLIC "-//W3C//DTD SVG 1.1//EN" "http://www.w3.org/Graphics/SVG/1.1/DTD/svg11.dtd">
<svg version="1.1" id="Layer_1" xmlns="http://www.w3.org/2000/svg" xmlns:xlink="http://www.w3.org/1999/xlink" x="0px" y="0px"
	 width="21.091px" height="27.568px" viewBox="0 0 21.091 27.568" enable-background="new 0 0 21.091 27.568" xml:space="preserve">
<g>
	<defs>
		<rect id="SVGID_1_" x="0" y="-0.001" width="21.092" height="27.569"/>
	</defs>
	<clipPath id="SVGID_2_">
		<use xlink:href="#SVGID_1_"  overflow="visible"/>
	</clipPath>
	<path clip-path="url(#SVGID_2_)" fill="#FFFFFF" d="M21.091,10.626C21.091,4.756,16.371,0,10.546,0C4.72,0,0,4.756,0,10.626
		c0,5.021,3.461,9.218,8.106,10.329l2.44,6.613l2.438-6.613C17.63,19.845,21.091,15.646,21.091,10.626"/>
</g>
<g>
	<defs>
		<rect id="SVGID_3_" x="2.833" y="1.221" width="15.955" height="18.48"/>
	</defs>
	<clipPath id="SVGID_4_">
		<use xlink:href="#SVGID_3_"  overflow="visible"/>
	</clipPath>
	<path clip-path="url(#SVGID_4_)" fill="none" stroke="#EE203B" stroke-width="0.5" stroke-miterlimit="10" d="M7.016,3.634
		C4.615,4.949,2.987,7.5,2.987,10.432c0,4.277,3.468,7.746,7.746,7.746"/>
</g>
<polygon fill="#EE203B" points="12.505,17.983 10.015,16.533 10.015,19.433 "/>
<g>
	<defs>
		<rect id="SVGID_5_" x="2.833" y="1.221" width="15.955" height="18.48"/>
	</defs>
	<clipPath id="SVGID_6_">
		<use xlink:href="#SVGID_5_"  overflow="visible"/>
	</clipPath>
	<polygon clip-path="url(#SVGID_6_)" fill="none" stroke="#EE203B" stroke-width="0.5" points="12.505,17.983 10.015,16.533 
		10.015,19.433 	"/>
	<path clip-path="url(#SVGID_6_)" fill="none" stroke="#EE203B" stroke-width="0.5" stroke-miterlimit="10" d="M14.42,17.284
		c2.487-1.29,4.187-3.888,4.187-6.882c0-4.278-3.468-7.746-7.747-7.746"/>
</g>
<polygon fill="#EE203B" points="9.188,2.852 11.527,4.213 11.527,1.488 "/>
<g>
	<defs>
		<rect id="SVGID_7_" x="2.833" y="1.221" width="15.955" height="18.48"/>
	</defs>
	<clipPath id="SVGID_8_">
		<use xlink:href="#SVGID_7_"  overflow="visible"/>
	</clipPath>
	<polygon clip-path="url(#SVGID_8_)" fill="none" stroke="#EE203B" stroke-width="0.5" points="9.188,2.852 11.527,4.213 
		11.527,1.488 	"/>
</g>
<polygon fill="#EE203B" points="13.197,13.581 9.272,13.581 9.272,6.806 "/>
</svg>
