<svg xmlns="http://www.w3.org/2000/svg" viewBox="0 0 18.07 18.07"><title>settings</title><g id="Layer_2" data-name="Layer 2"><g id="Calque_1" data-name="Calque 1"><path d="M.87,11h.87a8.24,8.24,0,0,0,.71,1.73l-.61.61c-.62.62-.63.63,0,1.25l1.6,1.61c.62.63.63.63,1.25,0l.61-.61A6.73,6.73,0,0,0,7,16.34v.87c0,.87,0,.87.86.87h2.28c.88,0,.86,0,.86-.87v-.87a8.15,8.15,0,0,0,1.74-.71l.61.61c.6.61.66.59,1.25,0l1.61-1.61c.62-.62.56-.69,0-1.25l-.61-.61A6.87,6.87,0,0,0,16.34,11h.86c.87,0,.87,0,.87-.87V7.9c0-.87,0-.87-.87-.87h-.86a8.25,8.25,0,0,0-.71-1.73l.61-.61c.62-.63.63-.62,0-1.25l-1.61-1.6c-.62-.63-.62-.63-1.25,0l-.61.61A6.77,6.77,0,0,0,11,1.73V.87C11,0,11.1,0,10.18,0H7.89C7,0,7,0,7,.87v.87a8.1,8.1,0,0,0-1.74.71l-.61-.61c-.56-.56-.62-.63-1.25,0l-1.6,1.6c-.6.6-.63.62,0,1.25l.61.61A6.79,6.79,0,0,0,1.73,7H.87C0,7,0,7,0,7.9v2.28C0,11,0,11,.87,11ZM9.05,4.52A4.49,4.49,0,1,1,4.56,9,4.51,4.51,0,0,1,9.05,4.52Z"/></g></g></svg>