<svg xmlns="http://www.w3.org/2000/svg" viewBox="0 0 92 44"><defs><style>.cls-1{fill:#e6e6e6;}.cls-2{fill:#fc0f3a;}</style></defs><title>share_send</title><g id="Layer_2" data-name="Layer 2"><g id="Calque_1" data-name="Calque 1"><path class="cls-1" d="M92,27.79C92,36.56,84,44,75.55,44H14.34C5.93,44,0,36.56,0,27.79V15.88C0,7.11,5.93,0,14.34,0H75.55C84,0,92,7.11,92,15.88Z"/><path class="cls-2" d="M20.55,20.12a1.9,1.9,0,0,0-.4-.29,7.62,7.62,0,0,0-.86-.44,8.27,8.27,0,0,0-1.12-.4A4.48,4.48,0,0,0,17,18.83q-1.67,0-1.67,1.12a.88.88,0,0,0,.18.57,1.58,1.58,0,0,0,.53.41,4.86,4.86,0,0,0,.88.33l1.23.34a16.23,16.23,0,0,1,1.75.58,4.69,4.69,0,0,1,1.32.78A3.15,3.15,0,0,1,22,24.09a3.93,3.93,0,0,1,.29,1.6,4,4,0,0,1-.43,1.93,3.6,3.6,0,0,1-1.13,1.27,4.77,4.77,0,0,1-1.62.7,8,8,0,0,1-1.88.22,10.53,10.53,0,0,1-1.52-.11,11,11,0,0,1-1.52-.33,12.1,12.1,0,0,1-1.44-.52,8,8,0,0,1-1.28-.7l1.37-2.72a2.64,2.64,0,0,0,.49.36,7.26,7.26,0,0,0,1,.53,10.52,10.52,0,0,0,1.38.48,5.76,5.76,0,0,0,1.54.21Q19,27,19,26a.85.85,0,0,0-.25-.63,2.33,2.33,0,0,0-.68-.45,7.42,7.42,0,0,0-1-.37l-1.3-.38a11.28,11.28,0,0,1-1.62-.62A4.25,4.25,0,0,1,13,22.78a2.8,2.8,0,0,1-.67-1,3.73,3.73,0,0,1-.22-1.33,4.23,4.23,0,0,1,.4-1.88,4.07,4.07,0,0,1,1.08-1.38,4.73,4.73,0,0,1,1.59-.85,6.3,6.3,0,0,1,1.91-.29,7.26,7.26,0,0,1,1.39.13,10.47,10.47,0,0,1,1.31.34,9.44,9.44,0,0,1,1.17.48q.54.27,1,.53Z"/><path class="cls-2" d="M36.7,16.17V29.66H33.58V24.13H28.21v5.53H25.09V16.17h3.12v5.23h5.38V16.17Z"/><path class="cls-2" d="M43.9,16.17h2.81l4.92,13.49H48.44l-1-3H43.2l-1,3H39Zm3,8.32-1.58-4.77-1.62,4.77Z"/><path class="cls-2" d="M53.91,29.66V16.17H60a3.91,3.91,0,0,1,1.76.4,4.65,4.65,0,0,1,1.4,1,4.92,4.92,0,0,1,.92,1.46,4.37,4.37,0,0,1,.33,1.65,4.73,4.73,0,0,1-.15,1.21A4.67,4.67,0,0,1,63.81,23a4.13,4.13,0,0,1-1.61,1.61l3,5H61.65l-2.58-4.35H57v4.35ZM57,22.59h2.85a1.17,1.17,0,0,0,.95-.52,2.14,2.14,0,0,0,.4-1.34,1.88,1.88,0,0,0-.46-1.33,1.33,1.33,0,0,0-1-.49H57Z"/><path class="cls-2" d="M77.07,26.92v2.74H67.59V16.17H76.9V18.9H70.71v2.62H76v2.53H70.71v2.87Z"/></g></g></svg>