<svg xmlns="http://www.w3.org/2000/svg" viewBox="0 0 56.25 17.23"><defs><style>.cls-1{fill:#b3b3b3;}.cls-2{fill:#fc0f3a;}</style></defs><title>share_red</title><g id="Layer_2" data-name="Layer 2"><g id="Calque_1" data-name="Calque 1"><path class="cls-1" d="M56.25,11A6.22,6.22,0,0,1,50,17.23H6.21A6.22,6.22,0,0,1,0,11V6.22A6.22,6.22,0,0,1,6.21,0H50a6.22,6.22,0,0,1,6.22,6.22Z"/><path class="cls-2" d="M22.28,7.59a1,1,0,0,0-.21-.15,4.19,4.19,0,0,0-1-.43,2.3,2.3,0,0,0-.62-.09q-.86,0-.86.58a.46.46,0,0,0,.09.29A.83.83,0,0,0,20,8a2.68,2.68,0,0,0,.45.17l.63.17a8,8,0,0,1,.9.3,2.37,2.37,0,0,1,.68.4,1.64,1.64,0,0,1,.43.58,2,2,0,0,1,.15.82,2.07,2.07,0,0,1-.22,1,1.9,1.9,0,0,1-.58.65,2.51,2.51,0,0,1-.83.36,4.18,4.18,0,0,1-1,.11A5.6,5.6,0,0,1,19,12.33a6.13,6.13,0,0,1-.73-.27,4.08,4.08,0,0,1-.66-.36l.7-1.39a1.26,1.26,0,0,0,.25.18,3.59,3.59,0,0,0,.53.27,5.06,5.06,0,0,0,.71.24,3,3,0,0,0,.79.11c.56,0,.85-.17.85-.52a.44.44,0,0,0-.13-.32,1.15,1.15,0,0,0-.35-.23,3.87,3.87,0,0,0-.53-.19l-.67-.19A5.72,5.72,0,0,1,19,9.35,2.19,2.19,0,0,1,18.4,9a1.37,1.37,0,0,1-.34-.52,1.81,1.81,0,0,1-.12-.68,2.19,2.19,0,0,1,.2-1,2.11,2.11,0,0,1,.55-.71,2.46,2.46,0,0,1,.81-.43,3.29,3.29,0,0,1,1-.15,3.69,3.69,0,0,1,.71.07,5.18,5.18,0,0,1,.67.17,5,5,0,0,1,.6.24l.51.27Z"/><path class="cls-2" d="M30.55,5.57v6.91H29V9.65H26.2v2.83h-1.6V5.57h1.6V8.25H29V5.57Z"/><path class="cls-2" d="M34.24,5.57h1.44l2.52,6.91H36.57L36,10.93H33.88l-.53,1.55H31.72Zm1.53,4.26L35,7.39l-.83,2.44Z"/><path class="cls-2" d="M39.37,12.48V5.57h3.12a2,2,0,0,1,.9.2,2.42,2.42,0,0,1,.71.54,2.55,2.55,0,0,1,.47.75,2.23,2.23,0,0,1,.17.85,2.47,2.47,0,0,1-.08.62,2.41,2.41,0,0,1-.22.56,2.15,2.15,0,0,1-.82.83l1.52,2.57h-1.8L42,10.25H41v2.23ZM41,8.86h1.46a.6.6,0,0,0,.49-.27,1.09,1.09,0,0,0,.21-.68,1,1,0,0,0-.23-.68A.69.69,0,0,0,42.37,7H41V8.86Z"/><path class="cls-2" d="M51.23,11.08v1.4H46.37V5.57h4.77V7H48V8.31h2.72V9.61H48v1.47h3.26Z"/><path class="cls-2" d="M11,10.4a2,2,0,0,0-1.18.4L7.09,9.08a2.38,2.38,0,0,0,0-.24,1.09,1.09,0,0,0,0-.11L10,6.9a2,2,0,1,0-1-1.7A1.91,1.91,0,0,0,9,5.64L6.4,7.33a2,2,0,0,0-1.27-.47,2,2,0,1,0,1.18,3.57L9,12.15a1.79,1.79,0,0,0,0,.23,2,2,0,1,0,2-2Z"/></g></g></svg>