<svg xmlns="http://www.w3.org/2000/svg" viewBox="0 0 77 38"><defs><style>.cls-1{fill:#fc0f3a;}.cls-2{fill:#f7f7f7;}</style></defs><title>share_send</title><g id="Layer_2" data-name="Layer 2"><g id="Calque_1" data-name="Calque 1"><path class="cls-1" d="M77,23.6C77,30.92,70.84,38,63.82,38H12.73C5.71,38,0,30.92,0,23.6V13.66C0,6.34,5.71,0,12.73,0H63.82C70.84,0,77,6.34,77,13.66Z"/><path class="cls-2" d="M18.56,17.39a1.68,1.68,0,0,0-.34-.24,6.39,6.39,0,0,0-.72-.37,7,7,0,0,0-.94-.34,3.74,3.74,0,0,0-1-.14q-1.41,0-1.41.94a.75.75,0,0,0,.15.48,1.34,1.34,0,0,0,.45.34,4.17,4.17,0,0,0,.74.28l1,.29a13.67,13.67,0,0,1,1.47.49,4,4,0,0,1,1.11.66,2.65,2.65,0,0,1,.7,1,3.3,3.3,0,0,1,.25,1.34,3.37,3.37,0,0,1-.36,1.62,3,3,0,0,1-1,1.07,4,4,0,0,1-1.36.59,6.8,6.8,0,0,1-1.58.18,8.89,8.89,0,0,1-1.28-.1,9.27,9.27,0,0,1-1.28-.28A10,10,0,0,1,12,24.74a6.62,6.62,0,0,1-1.08-.59l1.15-2.29a2.17,2.17,0,0,0,.42.3,6.11,6.11,0,0,0,.87.45,8.73,8.73,0,0,0,1.16.4,4.87,4.87,0,0,0,1.3.18q1.39,0,1.39-.85a.72.72,0,0,0-.21-.53,2,2,0,0,0-.58-.38,6.3,6.3,0,0,0-.87-.31l-1.1-.32a9.47,9.47,0,0,1-1.36-.52,3.6,3.6,0,0,1-1-.65,2.36,2.36,0,0,1-.56-.85,3.11,3.11,0,0,1-.18-1.12,3.57,3.57,0,0,1,.34-1.58,3.42,3.42,0,0,1,.91-1.16A4,4,0,0,1,14,14.21,5.31,5.31,0,0,1,15.62,14a6.06,6.06,0,0,1,1.17.11,8.78,8.78,0,0,1,1.1.29,7.86,7.86,0,0,1,1,.4q.46.22.84.45Z"/><path class="cls-2" d="M32.16,14.07V25.43H29.54V20.77H25v4.66H22.39V14.07H25v4.4h4.53v-4.4Z"/><path class="cls-2" d="M38.23,14.07H40.6l4.14,11.36H42.05l-.88-2.54H37.64l-.86,2.54H34.08Zm2.51,7-1.33-4-1.36,4Z"/><path class="cls-2" d="M46.66,25.43V14.07h5.12a3.3,3.3,0,0,1,1.48.34,3.94,3.94,0,0,1,1.18.88,4.12,4.12,0,0,1,.78,1.23,3.67,3.67,0,0,1,.28,1.39,4,4,0,0,1-.5,1.94,3.48,3.48,0,0,1-1.36,1.36l2.5,4.22h-3L51,21.76H49.28v3.66Zm2.62-6h2.4a1,1,0,0,0,.8-.44,1.81,1.81,0,0,0,.34-1.13,1.59,1.59,0,0,0-.38-1.12,1.13,1.13,0,0,0-.83-.42H49.28Z"/><path class="cls-2" d="M66.16,23.12v2.3h-8V14.07H66v2.3H60.8v2.21h4.48v2.13H60.8v2.42Z"/></g></g></svg>