<svg xmlns="http://www.w3.org/2000/svg" viewBox="0 0 85 39"><defs><style>.cls-1{fill:#e6e6e6;}.cls-2{fill:#fc0f3a;}</style></defs><title>split</title><g id="Layer_2" data-name="Layer 2"><g id="Calque_1" data-name="Calque 1"><rect class="cls-1" width="85" height="39" rx="14.06" ry="14.06"/><path class="cls-2" d="M23.18,17.81a1.9,1.9,0,0,0-.4-.29,7.59,7.59,0,0,0-.86-.44,8.24,8.24,0,0,0-1.12-.4,4.46,4.46,0,0,0-1.22-.17q-1.67,0-1.67,1.12a.89.89,0,0,0,.18.57,1.59,1.59,0,0,0,.53.41,4.85,4.85,0,0,0,.88.33l1.24.34a16.06,16.06,0,0,1,1.75.58,4.69,4.69,0,0,1,1.32.78,3.16,3.16,0,0,1,.84,1.13,3.93,3.93,0,0,1,.29,1.6,4,4,0,0,1-.43,1.93,3.6,3.6,0,0,1-1.13,1.27,4.77,4.77,0,0,1-1.61.7,8.06,8.06,0,0,1-1.88.22,10.47,10.47,0,0,1-1.52-.11,10.9,10.9,0,0,1-1.52-.33,12.06,12.06,0,0,1-1.43-.52,8,8,0,0,1-1.28-.7l1.37-2.72a2.66,2.66,0,0,0,.49.36A7.4,7.4,0,0,0,17,24a10.45,10.45,0,0,0,1.38.47,5.76,5.76,0,0,0,1.54.21q1.65,0,1.65-1a.85.85,0,0,0-.25-.63,2.33,2.33,0,0,0-.68-.45,7.49,7.49,0,0,0-1-.37l-1.3-.38a11.16,11.16,0,0,1-1.62-.62,4.26,4.26,0,0,1-1.13-.77,2.79,2.79,0,0,1-.66-1,3.69,3.69,0,0,1-.22-1.33,4.24,4.24,0,0,1,.4-1.88,4.08,4.08,0,0,1,1.08-1.38A4.74,4.74,0,0,1,17.77,14a6.32,6.32,0,0,1,1.91-.28,7.25,7.25,0,0,1,1.39.13,10.43,10.43,0,0,1,1.31.34,9.55,9.55,0,0,1,1.17.47q.54.27,1,.53Z"/><path class="cls-2" d="M27.72,27.35V13.86h5.76a3.94,3.94,0,0,1,1.78.4,4.56,4.56,0,0,1,1.39,1,5,5,0,0,1,.91,1.46,4.35,4.35,0,0,1,.33,1.65,4.73,4.73,0,0,1-.31,1.71,4.89,4.89,0,0,1-.87,1.46,4.11,4.11,0,0,1-1.36,1,4.05,4.05,0,0,1-1.77.38H30.84v4.35Zm3.12-7.07h2.55a1.21,1.21,0,0,0,1-.47,2.11,2.11,0,0,0,.4-1.39,2.42,2.42,0,0,0-.12-.82,1.69,1.69,0,0,0-.33-.57,1.28,1.28,0,0,0-.47-.33,1.45,1.45,0,0,0-.53-.1H30.84Z"/><path class="cls-2" d="M40.51,27.35V13.86h3.12V24.62h6.54v2.74Z"/><path class="cls-2" d="M52.57,27.35V13.86h3.12V27.35Z"/><path class="cls-2" d="M69.5,16.6H65.4V27.35H62.28V16.6H58.16V13.86H69.5Z"/></g></g></svg>