<svg xmlns="http://www.w3.org/2000/svg" viewBox="0 0 11.83 17.71"><defs><style>.cls-1{fill:#fc0f3a;fill-rule:evenodd;}</style></defs><title>tracking</title><g id="Layer_2" data-name="Layer 2"><g id="Calque_1" data-name="Calque 1"><path class="cls-1" d="M11.83,6.11a5.07,5.07,0,0,1-.53,2.22C10,11.11,8.68,13.91,7.37,16.69A1.48,1.48,0,0,1,5,17.31a2,2,0,0,1-.41-.6C3.19,13.84,1.78,11,.5,8.08a5.4,5.4,0,0,1,.81-5.79A5.83,5.83,0,0,1,10,1.64,5.7,5.7,0,0,1,11.83,6.11ZM8.89,5.8A2.94,2.94,0,0,0,5.75,3,3,3,0,0,0,3,6,3,3,0,0,0,6.14,8.86,2.94,2.94,0,0,0,8.89,5.8Z"/></g></g></svg>