<svg xmlns="http://www.w3.org/2000/svg" viewBox="0 0 65 65"><defs><style>.cls-1{fill:#e6e6e6;}.cls-2{fill:#898888;}</style></defs><title>Twitter_gray</title><g id="Layer_2" data-name="Layer 2"><g id="Calque_1" data-name="Calque 1"><rect class="cls-1" width="65" height="65" rx="15.67" ry="15.67"/><path class="cls-2" d="M13.13,45.05a14.89,14.89,0,0,0,11.47-3.2,8,8,0,0,1-7.22-5.46,7.21,7.21,0,0,0,3.48-.12,8,8,0,0,1-6.18-7.72s2.32,1.13,3.45.91c0,0-5.65-4.21-2.35-10.36,0,0,6.37,8.07,16.16,8.07a7.52,7.52,0,0,1,4-8.73,7.85,7.85,0,0,1,9.3,1.6,14.2,14.2,0,0,0,4.92-1.86,7.83,7.83,0,0,1-3.37,4.31,17.4,17.4,0,0,0,4.4-1.15,13.47,13.47,0,0,1-3.84,4s1,16.62-15.16,22.18c-9,2.78-14.86,0-19.12-2.43"/></g></g></svg>