<svg xmlns="http://www.w3.org/2000/svg" viewBox="0 0 42 39"><defs><style>.cls-1{fill:#e6e6e6;}.cls-2{fill:#fc0f3a;}</style></defs><title>redo</title><g id="Layer_2" data-name="Layer 2"><g id="Calque_1" data-name="Calque 1"><rect class="cls-1" width="42" height="39" rx="14.06" ry="14.06"/><path class="cls-2" d="M9.07,21h4.67a.46.46,0,0,0,0,.07,6.09,6.09,0,0,0,6.09,6.09c3.36,0,7.12-2.73,7.12-6.08S26,15.07,22,15v3.89l-8.45-6.14L22,6.62v3.72c6,.07,9.59,4.86,9.59,10.74S26.25,31.82,20.33,31.82a11,11,0,0,1-11-10.75A1.11,1.11,0,0,0,9.07,21Z"/></g></g></svg>