<?xml version="1.0" encoding="UTF-8" standalone="no"?>
<!-- Created with Inkscape (http://www.inkscape.org/) -->
<svg id="svg3746" xmlns:rdf="http://www.w3.org/1999/02/22-rdf-syntax-ns#" xmlns="http://www.w3.org/2000/svg" viewBox="0 0 230 230" version="1.1" xmlns:cc="http://creativecommons.org/ns#" xmlns:dc="http://purl.org/dc/elements/1.1/">
 <metadata id="metadata3751">
  <rdf:RDF>
   <cc:Work rdf:about="">
    <dc:format>image/svg+xml</dc:format>
    <dc:type rdf:resource="http://purl.org/dc/dcmitype/StillImage"/>
    <dc:title/>
   </cc:Work>
  </rdf:RDF>
 </metadata>
 <path id="path3796" opacity="0.95" d="m205.23,114.61c0,23.521-9.6829,46.898-26.315,63.53-16.62,16.63-40,26.31-63.52,26.31-23.521,0-46.898-9.68-63.53-26.31s-26.315-40.01-26.315-63.53c0-23.521,9.6829-46.898,26.315-63.53s40.009-26.315,63.53-26.315,46.898,9.6829,63.53,26.315c16.63,16.632,26.31,40.009,26.31,63.53z" stroke="#000" stroke-miterlimit="4" stroke-dasharray="none" stroke-width="11.42671871" fill="none"/>
 <g id="g3083" transform="translate(115.0147,116.45268)">
  <g id="boat" stroke-linejoin="miter" stroke="#000" stroke-linecap="butt" fill="none">
   <path id="path3445" stroke-miterlimit="10" stroke-width="2.35544157" stroke-dasharray="none" d="m23.485,29.59-47.003,0s-0.11306-17.31,0-22.605c0.39807-18.78,4.9982-34.992,23.502-50.395,17.218,15.402,23.072,31.497,23.5,50.052,0.12493,5.3776,0,22.948,0,22.948z"/>
   <path id="path3449" stroke-miterlimit="4" stroke-width="0.625" stroke-dasharray="none" d="m4.8647,0.059809-9.765,0"/>
   <path id="path3453" stroke-miterlimit="4" stroke-width="0.625" stroke-dasharray="none" d="m-0.025339-4.8202,0,9.765"/>
   <path id="path3481" d="m-0.015339-45.055,0-49.27" stroke-dashoffset="0" stroke-miterlimit="4" stroke-dasharray="3.79054089, 3.79054089" stroke-width="0.94716167"/>
  </g>
 </g>
 <g id="g3040" transform="matrix(-0.71515219,0.69896877,-0.69896877,-0.71515219,113.13821,122.36008)">
  <path id="north" stroke-linejoin="miter" d="m-67.713,66.751-8.8388,8.8388" stroke="#000" stroke-linecap="butt" stroke-miterlimit="10" stroke-dasharray="none" stroke-width="1.25" fill="none"/>
  <path id="northtext" d="m-82.515,89.462-2.8034-2.7639,3.0419-10.166-6.582,6.6759-2.3796-2.3461,9.5967-9.7337,2.8034,2.7639-3.0419,10.166,6.582-6.6759,2.3796,2.3461-9.5967,9.7337" fill="#000" fill-rule="nonzero"/>
 </g>
 <g id="g3005" transform="matrix(0.7145515,0.69958284,-0.69958284,0.7145515,113.65424,108.35508)">
  <path id="red" fill-rule="nonzero" fill="#ff213e" d="m-62.613-90.175,23.597,24.276-2.1235,22.166-22.151,0.7581-23.261-23.93,23.937-23.27z"/>
 </g>
</svg>
